# xmcd
#
# Track frame offsets:
#	150
#	12935
#	20813
#	31365
#	42785
#	48698
#	58805
#	69188
#	78408
#	89743
#	98153
#	113355
#	128475
#	140310
#	153935
#	168485
#	178850
#	191130
#	203345
#	218678
#
# Disc length: 3074 seconds
#
# Revision: 3
# Processed by: cddbd v1.4PL0 Copyright (c) Steve Scherf et al.
# Submitted via: MusicWizard 6.0.0
#
DISCID=0b0c0014
DTITLE=Johnny Cash and Carl Perkins - Allegiance Extra (Two Lps On One Cd)
DYEAR=1987
DGENRE=Country
TTITLE0=Folsom Prison Blues  (Johnny Cash)
TTITLE1=I Can't Help It  (Johnny Cash)
TTITLE2=You Win Again  (Johnny Cash)
TTITLE3=Mean Eyed Cat  (Johnny Cash)
TTITLE4=My Treasure  (Johnny Cash)
TTITLE5=Hey Porter  (Johnny Cash)
TTITLE6=Straight A's In Love  (Johnny Cash)
TTITLE7=Two Timin' Woman  (Johnny Cash)
TTITLE8=Oh Lonesome Me  (Johnny Cash)
TTITLE9=Sugartime  (Johnny Cash)
TTITLE10=I Don't Want To Fall In Love Again  (Carl Perkins)
TTITLE11=The Hurt Put On By You  (Carl Perkins)
TTITLE12=I Want You Back Again  (Carl Perkins)
TTITLE13=Country Soul  (Carl Perkins)
TTITLE14=Redneck  (Carl Perkins)
TTITLE15=I Don't Like What I'm Seeing  (Carl Perkins)
TTITLE16=We Did It In "54"  (Carl Perkins)
TTITLE17=Don't Get Off Getting It On  (Carl Perkins)
TTITLE18=21  (Carl Perkins)
TTITLE19=Standing In The Need Of Love  (Carl Perkins)
EXTD=Tracks 1-10: Johnny Cash, "The First Years"\nTracks 11-20: Carl Perkins "The Heart and Soul o
EXTD=f Carl Perkins"\n(c)1987 Allegiance Records Ltd USA\nupc 02239-72926-22
EXTT0=
EXTT1=
EXTT2=
EXTT3=
EXTT4=
EXTT5=
EXTT6=
EXTT7=
EXTT8=
EXTT9=
EXTT10=
EXTT11=
EXTT12=
EXTT13=
EXTT14=
EXTT15=
EXTT16=
EXTT17=
EXTT18=
EXTT19=
PLAYORDER=
